<?xml version="1.0" encoding="utf-8"?>
<!-- Generator: Adobe Illustrator 16.0.0, SVG Export Plug-In . SVG Version: 6.00 Build 0)  -->
<!DOCTYPE svg PUBLIC "-//W3C//DTD SVG 1.1//EN" "http://www.w3.org/Graphics/SVG/1.1/DTD/svg11.dtd">
<svg version="1.1" id="Layer_1" xmlns="http://www.w3.org/2000/svg" xmlns:xlink="http://www.w3.org/1999/xlink" x="0px" y="0px"
	 width="731.356px" height="198.425px" viewBox="0 0 731.356 198.425" enable-background="new 0 0 731.356 198.425"
	 xml:space="preserve">
<g>
	<defs>
		<rect id="SVGID_1_" width="731.356" height="198.425"/>
	</defs>
	<clipPath id="SVGID_2_">
		<use xlink:href="#SVGID_1_"  overflow="visible"/>
	</clipPath>
	<path clip-path="url(#SVGID_2_)" fill="#34323D" d="M193.294,189.225h40.739V54.612l-40.739,4.636V189.225z M354.248,135.542
		L305.652,9.199h-45.15l74.887,180.026l36.624-0.033L446.935,9.199H402.85L354.248,135.542z M473.015,189.225h40.899V9.198h-40.899
		V189.225z M625.623,9.199h-72.499v180.026h72.499c58.427,0,98.793-39.348,98.793-90.011v-0.517
		C724.416,48.032,684.05,9.199,625.623,9.199 M681.661,99.939c0,31.78-22.577,53.562-56.038,53.562h-31.599V45.353h31.599
		c33.461,0,56.038,22.294,56.038,54.077V99.939z M140.95,66.591l-54.142,6.161l-77.74,86.387v30.086h154.809v-34.822H62.037
		L140.95,66.591z M156.786,9.199H10.516v34.459h146.27V9.199z M233.802,9.199h-41.998v34.459h41.998V9.199z"/>
</g>
</svg>
